# This file uses centimeters as units for non-parametric coordinates.

mtllib InvisibleTile.mtl
g default
v -0.500000 0.577360 0.500000
v 0.500000 0.577360 0.500000
v -0.500000 0.977360 0.500000
v 0.500000 0.977360 0.500000
v -0.500000 0.977360 -0.500000
v 0.500000 0.977360 -0.500000
v -0.500000 0.577360 -0.500000
v 0.500000 0.577360 -0.500000
vt 0.143997 0.623784
vt 0.499086 0.623796
vt 0.499080 0.765834
vt 0.143991 0.765819
vt 0.499119 0.268681
vt 0.144025 0.268655
vt 0.143994 0.126672
vt 0.641113 0.268728
vt 0.996229 0.268722
vt 0.996208 0.623815
vt 0.001972 0.623784
vt 0.001974 0.268698
vt 0.641127 0.623794
vt 0.499104 0.126688
vn 0.000000 0.000000 1.000000
vn 0.000000 0.000000 1.000000
vn 0.000000 0.000000 1.000000
vn 0.000000 0.000000 1.000000
vn 0.000000 1.000000 0.000000
vn 0.000000 1.000000 0.000000
vn 0.000000 1.000000 0.000000
vn 0.000000 1.000000 0.000000
vn 0.000000 0.000000 -1.000000
vn 0.000000 0.000000 -1.000000
vn 0.000000 0.000000 -1.000000
vn 0.000000 0.000000 -1.000000
vn 0.000000 -1.000000 0.000000
vn 0.000000 -1.000000 0.000000
vn 0.000000 -1.000000 0.000000
vn 0.000000 -1.000000 0.000000
vn 1.000000 0.000000 0.000000
vn 1.000000 0.000000 0.000000
vn 1.000000 0.000000 0.000000
vn 1.000000 0.000000 0.000000
vn -1.000000 0.000000 0.000000
vn -1.000000 0.000000 0.000000
vn -1.000000 0.000000 0.000000
vn -1.000000 0.000000 0.000000
s off
g pCube1
usemtl lambert2SG
f 1/6/1 2/1/2 4/11/3 3/12/4
f 3/9/5 4/10/6 6/13/7 5/8/8
f 5/8/9 6/13/10 8/2/11 7/5/12
f 7/5/13 8/2/14 2/1/15 1/6/16
f 2/1/17 8/2/18 6/3/19 4/4/20
f 7/5/21 1/6/22 3/7/23 5/14/24
